# xmcd
#
# Track frame offsets:
#	150
#	13420
#	26895
#	41023
#	53665
#	66903
#	77883
#	91338
#	103843
#	116690
#	128148
#	138773
#	151648
#	163783
#
# Disc length: 2349 seconds
# Revision: 2
# Processed by: cddbd v1.5.2PL0 Copyright (c) Steve Scherf et al.
# Submitted via: dBpowerAMP V12.0
#
DISCID=b9092b0e
DTITLE=Various Artist - Battle of the Blues, Vol. 1
DYEAR=1959
DGENRE=R&B
TTITLE0=Roy Brown - Boogie At Midnight
TTITLE1=Roy Brown - Big Town
TTITLE2=Roy Brown - Bar Room Blues
TTITLE3=Roy Brown - Love Don't Love Nobody
TTITLE4=Roy Brown - Miss Fanny Brown
TTITLE5=Roy Brown - Lolly Pop Mama
TTITLE6=Roy Brown - I've Got The Last Laugh Now
TTITLE7=Wynonie Harris - Bloodshot Eyes
TTITLE8=Wynonie Harris - Good Rockin' Tonight
TTITLE9=Wynonie Harris - Loving Machine
TTITLE10=Wynonie Harris - Shake That Thing
TTITLE11=Wynonie Harris - I Feel That Old Age Coming On
TTITLE12=Wynonie Harris - All She Wants To Do Is Rock
TTITLE13=Wynonie Harris - Good Morning Judge
EXTD=
EXTT0=
EXTT1=
EXTT2=
EXTT3=
EXTT4=
EXTT5=
EXTT6=
EXTT7=
EXTT8=
EXTT9=
EXTT10=
EXTT11=
EXTT12=
EXTT13=
PLAYORDER=
